<mxfile host="app.diagrams.net" modified="2023-07-18T22:12:24.113Z" agent="Mozilla/5.0 (Windows NT 10.0; Win64; x64) AppleWebKit/537.36 (KHTML, like Gecko) Chrome/114.0.0.0 Safari/537.36" version="21.3.6" etag="tfAi0dhMo1lepr1rWlRZ" type="github">
  <diagram name="Strona-1" id="0LLe7s4RpF6T6vIi_UMm">
    <mxGraphModel>
      <root>
        <mxCell id="0" />
        <mxCell id="1" parent="0" />
      </root>
    </mxGraphModel>
  </diagram>
</mxfile>
